<?xml version="1.0"?>
<svg xmlns="http://www.w3.org/2000/svg" xmlns:xlink="http://www.w3.org/1999/xlink" xmlns:svgjs="http://svgjs.com/svgjs" version="1.1" width="512" height="512" x="0" y="0" viewBox="0 0 510 510" style="enable-background:new 0 0 512 512" xml:space="preserve" class=""><g><g xmlns="http://www.w3.org/2000/svg" id="XMLID_164_"><path id="XMLID_589_" d="m58.666 180.02-58.666 36.666 58.666 35.885z" fill="#e4d4c8" data-original="#000000" style="" class=""/><path id="XMLID_607_" d="m451.333 182.162v70.409l58.667-35.885v-.302z" fill="#e4d4c8" data-original="#000000" style="" class=""/><circle id="XMLID_615_" cx="255" cy="127.5" r="22.5" fill="#e4d4c8" data-original="#000000" style="" class=""/><path id="XMLID_646_" d="m255 180c-19.556 0-36.239 12.539-42.43 30h84.859c-6.19-17.461-22.872-30-42.429-30z" fill="#e4d4c8" data-original="#000000" style="" class=""/><path id="XMLID_649_" d="m20.687 510h469.881l-235.545-176.246zm309.313-45h-150v-30h150z" fill="#e4d4c8" data-original="#000000" style="" class=""/><path id="XMLID_651_" d="m0 251.854v236.166l173.171-130.244z" fill="#e4d4c8" data-original="#000000" style="" class=""/><path id="XMLID_668_" d="m510 487.072v-235.218l-172.965 105.796z" fill="#e4d4c8" data-original="#000000" style="" class=""/><path id="XMLID_671_" d="m254.977 296.25 56.198 42.051c31.93-19.531 94.04-57.522 108.825-66.565v-271.736h-330v271.736c15.25 9.328 77.276 47.268 108.958 66.646zm-74.977-71.25c0-26.692 14.027-50.156 35.087-63.451-7.838-9.175-12.587-21.064-12.587-34.049 0-28.949 23.551-52.5 52.5-52.5 28.948 0 52.5 23.551 52.5 52.5 0 12.984-4.749 24.874-12.587 34.049 21.06 13.294 35.087 36.759 35.087 63.451v15h-150z" fill="#e4d4c8" data-original="#000000" style="" class=""/></g></g></svg>
