<?xml version="1.0" encoding="iso-8859-1"?>
<!-- Generator: Adobe Illustrator 19.0.0, SVG Export Plug-In . SVG Version: 6.00 Build 0)  -->
<svg version="1.1" id="Capa_1" xmlns="http://www.w3.org/2000/svg" xmlns:xlink="http://www.w3.org/1999/xlink" x="0px" y="0px"
	 viewBox="0 0 512 512" style="enable-background:new 0 0 512 512;" xml:space="preserve">
<g>
	<g>
		<g>
			<path d="M402.29,91.429H182.862V256h58.108c-27.182-21.887-37.602-58.539-25.998-91.451
				c11.603-32.913,42.706-54.926,77.604-54.926c34.898,0,66.001,22.013,77.604,54.926c11.604,32.913,1.184,69.565-25.998,91.451
				h58.108V91.429z"/>
			<path d="M118.862,45.714c0.012-10.094,8.192-18.274,18.286-18.286h173.714V0H91.433v256h27.429V45.714z"/>
			<path d="M137.147,256h27.429V91.429c0.012-10.094,8.192-18.274,18.286-18.286h173.714V45.714H137.147V256z"/>
			<path d="M337.793,237.248c18.326-18.295,23.821-45.83,13.922-69.758c-9.899-23.928-33.241-39.533-59.136-39.534
				c-25.895-0.001-49.239,15.602-59.14,39.529c-9.901,23.927-4.408,51.463,13.916,69.76c1.649-12.023,8.703-22.633,19.152-28.805
				c-14.111-14.349-13.976-37.403,0.302-51.585c14.278-14.182,37.333-14.162,51.586,0.045c14.253,14.208,14.348,37.262,0.212,51.586
				c2.033,1.226,3.963,2.614,5.773,4.15C331.813,218.838,336.609,227.638,337.793,237.248z"/>
			<rect x="420.576" y="182.857" width="18.286" height="73.143"/>
			<circle cx="292.576" cy="182.857" r="18.286"/>
			<path d="M265.147,241.554v8.183c17.332,8.351,37.525,8.351,54.857,0v-8.183c-0.12-5.881-2.879-11.396-7.513-15.018
				c-5.553-4.713-12.633-7.24-19.915-7.107C278.946,218.144,266.777,227.96,265.147,241.554z"/>
			<polygon points="73.147,257.399 73.147,182.857 3.918,182.857 33.431,264.018 			"/>
			<path d="M173.719,274.286H88.732L3.835,512h423.263l84.897-237.714H173.719z M365.719,364.415V384
				c-0.017,15.142-12.287,27.412-27.429,27.429h-128c-15.142-0.017-27.412-12.287-27.429-27.429v-19.585
				c-17.831-4.604-29.458-21.749-27.137-40.018c2.32-18.269,17.864-31.963,36.28-31.963c18.416,0,33.959,13.694,36.28,31.963
				c2.32,18.269-9.306,35.414-27.137,40.018V384c0.005,5.047,4.095,9.138,9.143,9.143h128c5.047-0.005,9.138-4.096,9.143-9.143
				v-19.585c-17.831-4.604-29.458-21.749-27.137-40.018c2.32-18.269,17.864-31.963,36.28-31.963
				c18.416,0,33.959,13.694,36.28,31.963C395.176,342.666,383.55,359.811,365.719,364.415z"/>
			<path d="M356.576,310.857c-8.267-0.027-15.516,5.513-17.661,13.497c-2.145,7.984,1.352,16.411,8.519,20.531v-6.599
				c0-5.049,4.093-9.143,9.143-9.143c5.049,0,9.143,4.093,9.143,9.143v6.599c7.167-4.12,10.664-12.547,8.519-20.531
				C372.092,316.37,364.843,310.83,356.576,310.857z"/>
			<path d="M201.147,344.885c7.167-4.138,10.662-12.574,8.52-20.569s-9.386-13.553-17.663-13.553
				c-8.276,0-15.521,5.559-17.663,13.553c-2.142,7.994,1.352,16.43,8.52,20.569v-6.599c0-5.049,4.093-9.143,9.143-9.143
				s9.143,4.093,9.143,9.143V344.885z"/>
			<path d="M36.438,282.054c-8.693,1.452-17.185-3.503-20.197-11.786L0.005,225.616v242.743l68.443-191.641L36.438,282.054z"/>
		</g>
	</g>
</g>
<g>
</g>
<g>
</g>
<g>
</g>
<g>
</g>
<g>
</g>
<g>
</g>
<g>
</g>
<g>
</g>
<g>
</g>
<g>
</g>
<g>
</g>
<g>
</g>
<g>
</g>
<g>
</g>
<g>
</g>
</svg>
