<?xml version="1.0"?>
<svg xmlns="http://www.w3.org/2000/svg" xmlns:xlink="http://www.w3.org/1999/xlink" xmlns:svgjs="http://svgjs.com/svgjs" version="1.1" width="512" height="512" x="0" y="0" viewBox="0 0 64 64" style="enable-background:new 0 0 512 512" xml:space="preserve" class=""><g><g xmlns="http://www.w3.org/2000/svg"><path d="m32.146 20h-.291c-1.575 0-2.855 1.28-2.855 2.854 0 1.088.604 2.066 1.578 2.553l1.949.975c.292.145.473.438.473.764 0 .471-.384.854-.854.854h-.291c-.471 0-.855-.383-.855-.854v-.146h-2v.146c0 1.574 1.28 2.854 2.854 2.854h.291c1.575 0 2.855-1.28 2.855-2.854 0-1.088-.604-2.066-1.578-2.553l-1.949-.975c-.292-.145-.473-.438-.473-.764 0-.471.384-.854.854-.854h.291c.471 0 .855.383.855.854v.146h2v-.146c0-1.574-1.28-2.854-2.854-2.854z" fill="#d0b49f" data-original="#000000" style="" class=""/><path d="m37 30h4v-2h-2v-2h2v-2h-2v-2h2v-2h-4z" fill="#d0b49f" data-original="#000000" style="" class=""/><path d="m46 20c-1.654 0-3 1.346-3 3v4c0 1.654 1.346 3 3 3s3-1.346 3-3v-4c0-1.654-1.346-3-3-3zm1 7c0 .551-.448 1-1 1s-1-.449-1-1v-4c0-.551.448-1 1-1s1 .449 1 1z" fill="#d0b49f" data-original="#000000" style="" class=""/><path d="m39 11c-7.72 0-14 6.28-14 14s6.28 14 14 14 14-6.28 14-14-6.28-14-14-14zm0 26c-6.617 0-12-5.383-12-12s5.383-12 12-12 12 5.383 12 12-5.383 12-12 12z" fill="#d0b49f" data-original="#000000" style="" class=""/><path d="m60.509 20.442c-.56-2.666-1.591-5.162-3.073-7.435l1.164-2.349-5.258-5.258-2.349 1.164c-2.271-1.481-4.767-2.513-7.436-3.074l-.839-2.49h-7.436l-.84 2.491c-2.669.561-5.164 1.593-7.436 3.074l-2.348-1.165-5.258 5.259 1.164 2.349c-.823 1.262-1.493 2.6-2.034 3.992h-12.53c-2.757 0-5 2.243-5 5v24c0 2.757 2.243 5 5 5h7v2h-2c-2.206 0-4 1.794-4 4 0 1.103.897 2 2 2h26c0 2.206 1.794 4 4 4s4-1.794 4-4v-9c0-.395-.081-.77-.22-1.116 1.231-.334 2.144-1.425 2.206-2.745 2.134-.601 4.154-1.496 6.006-2.703l2.35 1.164 5.258-5.258-1.164-2.349c1.482-2.273 2.514-4.769 3.073-7.435l2.491-.84v-7.437zm-54.509-1.442h11.864c-.134.477-.27.953-.372 1.442l-2.492.84v7.437l2.491.84c.56 2.666 1.591 5.162 3.073 7.435l-1.164 2.347 1.659 1.659h-18.059v-19c0-1.654 1.346-3 3-3zm-3 27v-3h20.059l1.599 1.6 2.35-1.164c1.852 1.208 3.872 2.103 6.006 2.703.062 1.32.975 2.412 2.206 2.745-.015.037-.022.078-.036.116h-29.184c-1.654 0-3-1.346-3-3zm36-5c-8.822 0-16-7.178-16-16s7.178-16 16-16 16 7.178 16 16-7.178 16-16 16zm-4 10v2h-4v-2zm-20 0h14v2h-14zm-6 6c0-1.103.897-2 2-2h24v2zm32 2c0 1.103-.897 2-2 2s-2-.897-2-2v-9c0-.551.448-1 1-1h2c.552 0 1 .449 1 1zm1-12h-2-2-2c-.552 0-1-.449-1-1v-3.464c1.289.294 2.624.464 4 .464s2.711-.17 4-.464v3.464c0 .551-.448 1-1 1zm19-19.718-2.238.755-.105.58c-.512 2.8-1.587 5.401-3.197 7.732l-.334.485 1.045 2.109-3.227 3.227-2.11-1.045-.484.335c-1.645 1.137-3.444 1.995-5.349 2.591v-2.1c6.979-2.479 12-9.131 12-16.95 0-9.925-8.075-18-18-18s-18 8.075-18 18c0 7.819 5.021 14.471 12 16.95v2.1c-1.905-.596-3.703-1.454-5.349-2.591l-.484-.335-2.11 1.045-1.058-1.057v-.113h-.113l-2.057-2.057 1.045-2.109-.334-.485c-1.61-2.331-2.686-4.933-3.197-7.732l-.105-.58-2.239-.755v-4.563l2.238-.755.105-.58c.512-2.801 1.587-5.402 3.197-7.732l.334-.485-1.045-2.109 3.227-3.227 2.11 1.045.484-.335c2.328-1.608 4.93-2.684 7.732-3.197l.58-.106.756-2.238h4.564l.754 2.237.58.106c2.803.513 5.404 1.588 7.732 3.197l.484.335 2.11-1.045 3.227 3.227-1.045 2.109.334.485c1.61 2.33 2.686 4.932 3.197 7.732l.105.58 2.24.755z" fill="#d0b49f" data-original="#000000" style="" class=""/><path d="m9 45h2v2h-2z" fill="#d0b49f" data-original="#000000" style="" class=""/><path d="m13 45h2v2h-2z" fill="#d0b49f" data-original="#000000" style="" class=""/><path d="m5 45h2v2h-2z" fill="#d0b49f" data-original="#000000" style="" class=""/><path d="m13 21h-8v10h8zm-2 8h-4v-6h4z" fill="#d0b49f" data-original="#000000" style="" class=""/><path d="m5 33h10v2h-10z" fill="#d0b49f" data-original="#000000" style="" class=""/><path d="m5 37h10v2h-10z" fill="#d0b49f" data-original="#000000" style="" class=""/></g></g></svg>
